<?xml version="1.0" encoding="UTF-8"?>
<svg version="1.1" xmlns="http://www.w3.org/2000/svg" width="267" height="213">
<path d="M0 0 C88.11 0 176.22 0 267 0 C267 70.29 267 140.58 267 213 C178.89 213 90.78 213 0 213 C0 142.71 0 72.42 0 0 Z " fill="#FCFCFC" transform="translate(0,0)"/>
<path d="M0 0 C0.66 0.33 1.32 0.66 2 1 C0.91663521 4.49084212 -0.1047123 5.05521194 -3.4375 6.8125 C-7 8 -7 8 -10 7 C-6.76478258 4.51137122 -3.40739705 2.24578442 0 0 Z " fill="#DDDDDD" transform="translate(140,136)"/>
<path d="M0 0 C-0.66 1.98 -1.32 3.96 -2 6 C-2.99 6 -3.98 6 -5 6 C-5.33 4.68 -5.66 3.36 -6 2 C-3 0 -3 0 0 0 Z " fill="#DEDEDE" transform="translate(128,145)"/>
</svg>
